<mxfile host="app.diagrams.net" modified="2023-01-03T05:54:25.393Z" agent="5.0 (Windows NT 10.0; Win64; x64) AppleWebKit/537.36 (KHTML, like Gecko) Chrome/108.0.0.0 Safari/537.36" etag="vKgl-fGp-EfDSJVMULr6" version="20.8.0" type="github">
  <diagram id="R2lEEEUBdFMjLlhIrx00" name="Page-1">
    <mxGraphModel dx="1434" dy="796" grid="1" gridSize="10" guides="1" tooltips="1" connect="1" arrows="1" fold="1" page="1" pageScale="1" pageWidth="850" pageHeight="1100" math="0" shadow="0" extFonts="Permanent Marker^https://fonts.googleapis.com/css?family=Permanent+Marker">
      <root>
        <mxCell id="0" />
        <mxCell id="1" parent="0" />
        <mxCell id="C-vyLk0tnHw3VtMMgP7b-1" value="" style="edgeStyle=entityRelationEdgeStyle;endArrow=ERzeroToMany;startArrow=ERone;endFill=1;startFill=0;" parent="1" source="C-vyLk0tnHw3VtMMgP7b-24" target="C-vyLk0tnHw3VtMMgP7b-6" edge="1">
          <mxGeometry width="100" height="100" relative="1" as="geometry">
            <mxPoint x="340" y="720" as="sourcePoint" />
            <mxPoint x="440" y="620" as="targetPoint" />
          </mxGeometry>
        </mxCell>
        <mxCell id="C-vyLk0tnHw3VtMMgP7b-12" value="" style="edgeStyle=entityRelationEdgeStyle;endArrow=ERzeroToMany;startArrow=ERone;endFill=1;startFill=0;" parent="1" source="C-vyLk0tnHw3VtMMgP7b-3" target="C-vyLk0tnHw3VtMMgP7b-17" edge="1">
          <mxGeometry width="100" height="100" relative="1" as="geometry">
            <mxPoint x="400" y="180" as="sourcePoint" />
            <mxPoint x="460" y="205" as="targetPoint" />
          </mxGeometry>
        </mxCell>
        <mxCell id="C-vyLk0tnHw3VtMMgP7b-2" value="User" style="shape=table;startSize=30;container=1;collapsible=1;childLayout=tableLayout;fixedRows=1;rowLines=0;fontStyle=1;align=center;resizeLast=1;" parent="1" vertex="1">
          <mxGeometry x="450" y="120" width="250" height="130" as="geometry" />
        </mxCell>
        <mxCell id="C-vyLk0tnHw3VtMMgP7b-3" value="" style="shape=partialRectangle;collapsible=0;dropTarget=0;pointerEvents=0;fillColor=none;points=[[0,0.5],[1,0.5]];portConstraint=eastwest;top=0;left=0;right=0;bottom=1;" parent="C-vyLk0tnHw3VtMMgP7b-2" vertex="1">
          <mxGeometry y="30" width="250" height="30" as="geometry" />
        </mxCell>
        <mxCell id="C-vyLk0tnHw3VtMMgP7b-4" value="PK" style="shape=partialRectangle;overflow=hidden;connectable=0;fillColor=none;top=0;left=0;bottom=0;right=0;fontStyle=1;" parent="C-vyLk0tnHw3VtMMgP7b-3" vertex="1">
          <mxGeometry width="30" height="30" as="geometry">
            <mxRectangle width="30" height="30" as="alternateBounds" />
          </mxGeometry>
        </mxCell>
        <mxCell id="C-vyLk0tnHw3VtMMgP7b-5" value="order_id int NOT NULL " style="shape=partialRectangle;overflow=hidden;connectable=0;fillColor=none;top=0;left=0;bottom=0;right=0;align=left;spacingLeft=6;fontStyle=5;" parent="C-vyLk0tnHw3VtMMgP7b-3" vertex="1">
          <mxGeometry x="30" width="220" height="30" as="geometry">
            <mxRectangle width="220" height="30" as="alternateBounds" />
          </mxGeometry>
        </mxCell>
        <mxCell id="C-vyLk0tnHw3VtMMgP7b-6" value="" style="shape=partialRectangle;collapsible=0;dropTarget=0;pointerEvents=0;fillColor=none;points=[[0,0.5],[1,0.5]];portConstraint=eastwest;top=0;left=0;right=0;bottom=0;" parent="C-vyLk0tnHw3VtMMgP7b-2" vertex="1">
          <mxGeometry y="60" width="250" height="30" as="geometry" />
        </mxCell>
        <mxCell id="C-vyLk0tnHw3VtMMgP7b-7" value="FK1" style="shape=partialRectangle;overflow=hidden;connectable=0;fillColor=none;top=0;left=0;bottom=0;right=0;" parent="C-vyLk0tnHw3VtMMgP7b-6" vertex="1">
          <mxGeometry width="30" height="30" as="geometry">
            <mxRectangle width="30" height="30" as="alternateBounds" />
          </mxGeometry>
        </mxCell>
        <mxCell id="C-vyLk0tnHw3VtMMgP7b-8" value="customer_id int NOT NULL" style="shape=partialRectangle;overflow=hidden;connectable=0;fillColor=none;top=0;left=0;bottom=0;right=0;align=left;spacingLeft=6;" parent="C-vyLk0tnHw3VtMMgP7b-6" vertex="1">
          <mxGeometry x="30" width="220" height="30" as="geometry">
            <mxRectangle width="220" height="30" as="alternateBounds" />
          </mxGeometry>
        </mxCell>
        <mxCell id="C-vyLk0tnHw3VtMMgP7b-9" value="" style="shape=partialRectangle;collapsible=0;dropTarget=0;pointerEvents=0;fillColor=none;points=[[0,0.5],[1,0.5]];portConstraint=eastwest;top=0;left=0;right=0;bottom=0;" parent="C-vyLk0tnHw3VtMMgP7b-2" vertex="1">
          <mxGeometry y="90" width="250" height="30" as="geometry" />
        </mxCell>
        <mxCell id="C-vyLk0tnHw3VtMMgP7b-10" value="" style="shape=partialRectangle;overflow=hidden;connectable=0;fillColor=none;top=0;left=0;bottom=0;right=0;" parent="C-vyLk0tnHw3VtMMgP7b-9" vertex="1">
          <mxGeometry width="30" height="30" as="geometry">
            <mxRectangle width="30" height="30" as="alternateBounds" />
          </mxGeometry>
        </mxCell>
        <mxCell id="C-vyLk0tnHw3VtMMgP7b-11" value="order_date date NOT NULL" style="shape=partialRectangle;overflow=hidden;connectable=0;fillColor=none;top=0;left=0;bottom=0;right=0;align=left;spacingLeft=6;" parent="C-vyLk0tnHw3VtMMgP7b-9" vertex="1">
          <mxGeometry x="30" width="220" height="30" as="geometry">
            <mxRectangle width="220" height="30" as="alternateBounds" />
          </mxGeometry>
        </mxCell>
        <mxCell id="C-vyLk0tnHw3VtMMgP7b-13" value="post" style="shape=table;startSize=30;container=1;collapsible=1;childLayout=tableLayout;fixedRows=1;rowLines=0;fontStyle=1;align=center;resizeLast=1;" parent="1" vertex="1">
          <mxGeometry x="450" y="280" width="250" height="130" as="geometry" />
        </mxCell>
        <mxCell id="C-vyLk0tnHw3VtMMgP7b-14" value="" style="shape=partialRectangle;collapsible=0;dropTarget=0;pointerEvents=0;fillColor=none;points=[[0,0.5],[1,0.5]];portConstraint=eastwest;top=0;left=0;right=0;bottom=1;" parent="C-vyLk0tnHw3VtMMgP7b-13" vertex="1">
          <mxGeometry y="30" width="250" height="30" as="geometry" />
        </mxCell>
        <mxCell id="C-vyLk0tnHw3VtMMgP7b-15" value="PK" style="shape=partialRectangle;overflow=hidden;connectable=0;fillColor=none;top=0;left=0;bottom=0;right=0;fontStyle=1;" parent="C-vyLk0tnHw3VtMMgP7b-14" vertex="1">
          <mxGeometry width="30" height="30" as="geometry">
            <mxRectangle width="30" height="30" as="alternateBounds" />
          </mxGeometry>
        </mxCell>
        <mxCell id="C-vyLk0tnHw3VtMMgP7b-16" value="shipment_id int NOT NULL " style="shape=partialRectangle;overflow=hidden;connectable=0;fillColor=none;top=0;left=0;bottom=0;right=0;align=left;spacingLeft=6;fontStyle=5;" parent="C-vyLk0tnHw3VtMMgP7b-14" vertex="1">
          <mxGeometry x="30" width="220" height="30" as="geometry">
            <mxRectangle width="220" height="30" as="alternateBounds" />
          </mxGeometry>
        </mxCell>
        <mxCell id="C-vyLk0tnHw3VtMMgP7b-17" value="" style="shape=partialRectangle;collapsible=0;dropTarget=0;pointerEvents=0;fillColor=none;points=[[0,0.5],[1,0.5]];portConstraint=eastwest;top=0;left=0;right=0;bottom=0;" parent="C-vyLk0tnHw3VtMMgP7b-13" vertex="1">
          <mxGeometry y="60" width="250" height="30" as="geometry" />
        </mxCell>
        <mxCell id="C-vyLk0tnHw3VtMMgP7b-18" value="FK1" style="shape=partialRectangle;overflow=hidden;connectable=0;fillColor=none;top=0;left=0;bottom=0;right=0;" parent="C-vyLk0tnHw3VtMMgP7b-17" vertex="1">
          <mxGeometry width="30" height="30" as="geometry">
            <mxRectangle width="30" height="30" as="alternateBounds" />
          </mxGeometry>
        </mxCell>
        <mxCell id="C-vyLk0tnHw3VtMMgP7b-19" value="order_id int NOT NULL" style="shape=partialRectangle;overflow=hidden;connectable=0;fillColor=none;top=0;left=0;bottom=0;right=0;align=left;spacingLeft=6;" parent="C-vyLk0tnHw3VtMMgP7b-17" vertex="1">
          <mxGeometry x="30" width="220" height="30" as="geometry">
            <mxRectangle width="220" height="30" as="alternateBounds" />
          </mxGeometry>
        </mxCell>
        <mxCell id="C-vyLk0tnHw3VtMMgP7b-20" value="" style="shape=partialRectangle;collapsible=0;dropTarget=0;pointerEvents=0;fillColor=none;points=[[0,0.5],[1,0.5]];portConstraint=eastwest;top=0;left=0;right=0;bottom=0;" parent="C-vyLk0tnHw3VtMMgP7b-13" vertex="1">
          <mxGeometry y="90" width="250" height="30" as="geometry" />
        </mxCell>
        <mxCell id="C-vyLk0tnHw3VtMMgP7b-21" value="" style="shape=partialRectangle;overflow=hidden;connectable=0;fillColor=none;top=0;left=0;bottom=0;right=0;" parent="C-vyLk0tnHw3VtMMgP7b-20" vertex="1">
          <mxGeometry width="30" height="30" as="geometry">
            <mxRectangle width="30" height="30" as="alternateBounds" />
          </mxGeometry>
        </mxCell>
        <mxCell id="C-vyLk0tnHw3VtMMgP7b-22" value="shipment_date date NOT NULL" style="shape=partialRectangle;overflow=hidden;connectable=0;fillColor=none;top=0;left=0;bottom=0;right=0;align=left;spacingLeft=6;" parent="C-vyLk0tnHw3VtMMgP7b-20" vertex="1">
          <mxGeometry x="30" width="220" height="30" as="geometry">
            <mxRectangle width="220" height="30" as="alternateBounds" />
          </mxGeometry>
        </mxCell>
        <mxCell id="C-vyLk0tnHw3VtMMgP7b-23" value="comment" style="shape=table;startSize=30;container=1;collapsible=1;childLayout=tableLayout;fixedRows=1;rowLines=0;fontStyle=1;align=center;resizeLast=1;" parent="1" vertex="1">
          <mxGeometry x="120" y="120" width="250" height="100" as="geometry" />
        </mxCell>
        <mxCell id="C-vyLk0tnHw3VtMMgP7b-24" value="" style="shape=partialRectangle;collapsible=0;dropTarget=0;pointerEvents=0;fillColor=none;points=[[0,0.5],[1,0.5]];portConstraint=eastwest;top=0;left=0;right=0;bottom=1;" parent="C-vyLk0tnHw3VtMMgP7b-23" vertex="1">
          <mxGeometry y="30" width="250" height="30" as="geometry" />
        </mxCell>
        <mxCell id="C-vyLk0tnHw3VtMMgP7b-25" value="PK" style="shape=partialRectangle;overflow=hidden;connectable=0;fillColor=none;top=0;left=0;bottom=0;right=0;fontStyle=1;" parent="C-vyLk0tnHw3VtMMgP7b-24" vertex="1">
          <mxGeometry width="30" height="30" as="geometry">
            <mxRectangle width="30" height="30" as="alternateBounds" />
          </mxGeometry>
        </mxCell>
        <mxCell id="C-vyLk0tnHw3VtMMgP7b-26" value="customer_id int NOT NULL " style="shape=partialRectangle;overflow=hidden;connectable=0;fillColor=none;top=0;left=0;bottom=0;right=0;align=left;spacingLeft=6;fontStyle=5;" parent="C-vyLk0tnHw3VtMMgP7b-24" vertex="1">
          <mxGeometry x="30" width="220" height="30" as="geometry">
            <mxRectangle width="220" height="30" as="alternateBounds" />
          </mxGeometry>
        </mxCell>
        <mxCell id="C-vyLk0tnHw3VtMMgP7b-27" value="" style="shape=partialRectangle;collapsible=0;dropTarget=0;pointerEvents=0;fillColor=none;points=[[0,0.5],[1,0.5]];portConstraint=eastwest;top=0;left=0;right=0;bottom=0;" parent="C-vyLk0tnHw3VtMMgP7b-23" vertex="1">
          <mxGeometry y="60" width="250" height="30" as="geometry" />
        </mxCell>
        <mxCell id="C-vyLk0tnHw3VtMMgP7b-28" value="" style="shape=partialRectangle;overflow=hidden;connectable=0;fillColor=none;top=0;left=0;bottom=0;right=0;" parent="C-vyLk0tnHw3VtMMgP7b-27" vertex="1">
          <mxGeometry width="30" height="30" as="geometry">
            <mxRectangle width="30" height="30" as="alternateBounds" />
          </mxGeometry>
        </mxCell>
        <mxCell id="C-vyLk0tnHw3VtMMgP7b-29" value="customer_name char(50) NOT NULL" style="shape=partialRectangle;overflow=hidden;connectable=0;fillColor=none;top=0;left=0;bottom=0;right=0;align=left;spacingLeft=6;" parent="C-vyLk0tnHw3VtMMgP7b-27" vertex="1">
          <mxGeometry x="30" width="220" height="30" as="geometry">
            <mxRectangle width="220" height="30" as="alternateBounds" />
          </mxGeometry>
        </mxCell>
        <mxCell id="eIY_nMuqHv6aUpB4erwn-23" style="edgeStyle=orthogonalEdgeStyle;rounded=0;orthogonalLoop=1;jettySize=auto;html=1;" edge="1" parent="1" source="eIY_nMuqHv6aUpB4erwn-2" target="eIY_nMuqHv6aUpB4erwn-24">
          <mxGeometry relative="1" as="geometry">
            <mxPoint x="430" y="800" as="targetPoint" />
          </mxGeometry>
        </mxCell>
        <mxCell id="eIY_nMuqHv6aUpB4erwn-27" value="" style="edgeStyle=orthogonalEdgeStyle;rounded=0;orthogonalLoop=1;jettySize=auto;html=1;" edge="1" parent="1" source="eIY_nMuqHv6aUpB4erwn-2" target="eIY_nMuqHv6aUpB4erwn-24">
          <mxGeometry relative="1" as="geometry" />
        </mxCell>
        <mxCell id="eIY_nMuqHv6aUpB4erwn-29" style="edgeStyle=orthogonalEdgeStyle;rounded=0;orthogonalLoop=1;jettySize=auto;html=1;exitX=1;exitY=1;exitDx=0;exitDy=0;entryX=0;entryY=0;entryDx=0;entryDy=0;" edge="1" parent="1" source="eIY_nMuqHv6aUpB4erwn-2" target="eIY_nMuqHv6aUpB4erwn-26">
          <mxGeometry relative="1" as="geometry">
            <mxPoint x="490" y="750" as="targetPoint" />
            <Array as="points">
              <mxPoint x="460" y="730" />
              <mxPoint x="460" y="750" />
              <mxPoint x="493" y="750" />
            </Array>
          </mxGeometry>
        </mxCell>
        <mxCell id="eIY_nMuqHv6aUpB4erwn-2" value="유저" style="whiteSpace=wrap;html=1;aspect=fixed;" vertex="1" parent="1">
          <mxGeometry x="410" y="670" width="60" height="60" as="geometry" />
        </mxCell>
        <mxCell id="eIY_nMuqHv6aUpB4erwn-3" value="게시글" style="whiteSpace=wrap;html=1;aspect=fixed;" vertex="1" parent="1">
          <mxGeometry x="395" y="920" width="60" height="60" as="geometry" />
        </mxCell>
        <mxCell id="eIY_nMuqHv6aUpB4erwn-17" style="edgeStyle=orthogonalEdgeStyle;rounded=0;orthogonalLoop=1;jettySize=auto;html=1;entryX=0;entryY=0.5;entryDx=0;entryDy=0;" edge="1" parent="1" source="eIY_nMuqHv6aUpB4erwn-4" target="eIY_nMuqHv6aUpB4erwn-2">
          <mxGeometry relative="1" as="geometry" />
        </mxCell>
        <mxCell id="eIY_nMuqHv6aUpB4erwn-4" value="user&lt;br&gt;Name" style="ellipse;whiteSpace=wrap;html=1;aspect=fixed;" vertex="1" parent="1">
          <mxGeometry x="320" y="590" width="50" height="50" as="geometry" />
        </mxCell>
        <mxCell id="eIY_nMuqHv6aUpB4erwn-19" style="edgeStyle=orthogonalEdgeStyle;rounded=0;orthogonalLoop=1;jettySize=auto;html=1;entryX=1;entryY=0.25;entryDx=0;entryDy=0;" edge="1" parent="1" source="eIY_nMuqHv6aUpB4erwn-5" target="eIY_nMuqHv6aUpB4erwn-2">
          <mxGeometry relative="1" as="geometry" />
        </mxCell>
        <mxCell id="eIY_nMuqHv6aUpB4erwn-5" value="pw" style="ellipse;whiteSpace=wrap;html=1;aspect=fixed;" vertex="1" parent="1">
          <mxGeometry x="450" y="540" width="50" height="50" as="geometry" />
        </mxCell>
        <mxCell id="eIY_nMuqHv6aUpB4erwn-22" style="edgeStyle=orthogonalEdgeStyle;rounded=0;orthogonalLoop=1;jettySize=auto;html=1;entryX=1;entryY=0.75;entryDx=0;entryDy=0;exitX=0.5;exitY=1;exitDx=0;exitDy=0;" edge="1" parent="1" source="eIY_nMuqHv6aUpB4erwn-6" target="eIY_nMuqHv6aUpB4erwn-2">
          <mxGeometry relative="1" as="geometry">
            <mxPoint x="580" y="720" as="targetPoint" />
            <Array as="points">
              <mxPoint x="525" y="715" />
            </Array>
          </mxGeometry>
        </mxCell>
        <mxCell id="eIY_nMuqHv6aUpB4erwn-6" value="email" style="ellipse;whiteSpace=wrap;html=1;aspect=fixed;" vertex="1" parent="1">
          <mxGeometry x="500" y="590" width="50" height="50" as="geometry" />
        </mxCell>
        <mxCell id="eIY_nMuqHv6aUpB4erwn-7" value="댓글" style="whiteSpace=wrap;html=1;aspect=fixed;" vertex="1" parent="1">
          <mxGeometry x="550" y="810" width="60" height="60" as="geometry" />
        </mxCell>
        <mxCell id="eIY_nMuqHv6aUpB4erwn-13" style="edgeStyle=orthogonalEdgeStyle;rounded=0;orthogonalLoop=1;jettySize=auto;html=1;" edge="1" parent="1" source="eIY_nMuqHv6aUpB4erwn-8" target="eIY_nMuqHv6aUpB4erwn-2">
          <mxGeometry relative="1" as="geometry" />
        </mxCell>
        <mxCell id="eIY_nMuqHv6aUpB4erwn-8" value="id" style="ellipse;whiteSpace=wrap;html=1;aspect=fixed;strokeColor=default;gradientColor=none;direction=west;" vertex="1" parent="1">
          <mxGeometry x="375" y="540" width="50" height="50" as="geometry" />
        </mxCell>
        <mxCell id="eIY_nMuqHv6aUpB4erwn-14" value="" style="endArrow=none;html=1;rounded=0;" edge="1" parent="1">
          <mxGeometry width="50" height="50" relative="1" as="geometry">
            <mxPoint x="390" y="580" as="sourcePoint" />
            <mxPoint x="410" y="580" as="targetPoint" />
          </mxGeometry>
        </mxCell>
        <mxCell id="eIY_nMuqHv6aUpB4erwn-25" value="" style="edgeStyle=orthogonalEdgeStyle;rounded=0;orthogonalLoop=1;jettySize=auto;html=1;" edge="1" parent="1" source="eIY_nMuqHv6aUpB4erwn-24" target="eIY_nMuqHv6aUpB4erwn-3">
          <mxGeometry relative="1" as="geometry" />
        </mxCell>
        <mxCell id="eIY_nMuqHv6aUpB4erwn-24" value="작성" style="rhombus;whiteSpace=wrap;html=1;strokeColor=default;strokeWidth=3;gradientColor=none;" vertex="1" parent="1">
          <mxGeometry x="390" y="790" width="50" height="50" as="geometry" />
        </mxCell>
        <mxCell id="eIY_nMuqHv6aUpB4erwn-30" value="" style="edgeStyle=orthogonalEdgeStyle;rounded=0;orthogonalLoop=1;jettySize=auto;html=1;entryX=0.5;entryY=0;entryDx=0;entryDy=0;" edge="1" parent="1" source="eIY_nMuqHv6aUpB4erwn-26" target="eIY_nMuqHv6aUpB4erwn-7">
          <mxGeometry relative="1" as="geometry">
            <mxPoint x="580" y="800" as="targetPoint" />
            <Array as="points">
              <mxPoint x="580" y="785" />
            </Array>
          </mxGeometry>
        </mxCell>
        <mxCell id="eIY_nMuqHv6aUpB4erwn-26" value="작성" style="rhombus;whiteSpace=wrap;html=1;strokeColor=default;strokeWidth=3;gradientColor=none;" vertex="1" parent="1">
          <mxGeometry x="480" y="760" width="50" height="50" as="geometry" />
        </mxCell>
        <mxCell id="eIY_nMuqHv6aUpB4erwn-53" value="" style="edgeStyle=orthogonalEdgeStyle;rounded=0;orthogonalLoop=1;jettySize=auto;html=1;" edge="1" parent="1" source="eIY_nMuqHv6aUpB4erwn-31" target="eIY_nMuqHv6aUpB4erwn-7">
          <mxGeometry relative="1" as="geometry" />
        </mxCell>
        <mxCell id="eIY_nMuqHv6aUpB4erwn-31" value="user&lt;br&gt;Name" style="ellipse;whiteSpace=wrap;html=1;aspect=fixed;" vertex="1" parent="1">
          <mxGeometry x="660" y="810" width="50" height="50" as="geometry" />
        </mxCell>
        <mxCell id="eIY_nMuqHv6aUpB4erwn-50" style="edgeStyle=orthogonalEdgeStyle;rounded=0;orthogonalLoop=1;jettySize=auto;html=1;entryX=0.25;entryY=1;entryDx=0;entryDy=0;" edge="1" parent="1" source="eIY_nMuqHv6aUpB4erwn-32" target="eIY_nMuqHv6aUpB4erwn-7">
          <mxGeometry relative="1" as="geometry" />
        </mxCell>
        <mxCell id="eIY_nMuqHv6aUpB4erwn-32" value="pw" style="ellipse;whiteSpace=wrap;html=1;aspect=fixed;" vertex="1" parent="1">
          <mxGeometry x="530" y="920" width="50" height="50" as="geometry" />
        </mxCell>
        <mxCell id="eIY_nMuqHv6aUpB4erwn-44" value="" style="edgeStyle=orthogonalEdgeStyle;rounded=0;orthogonalLoop=1;jettySize=auto;html=1;" edge="1" parent="1" source="eIY_nMuqHv6aUpB4erwn-33" target="eIY_nMuqHv6aUpB4erwn-3">
          <mxGeometry relative="1" as="geometry" />
        </mxCell>
        <mxCell id="eIY_nMuqHv6aUpB4erwn-33" value="user&lt;br&gt;Name" style="ellipse;whiteSpace=wrap;html=1;aspect=fixed;" vertex="1" parent="1">
          <mxGeometry x="280" y="910" width="50" height="50" as="geometry" />
        </mxCell>
        <mxCell id="eIY_nMuqHv6aUpB4erwn-51" style="edgeStyle=orthogonalEdgeStyle;rounded=0;orthogonalLoop=1;jettySize=auto;html=1;entryX=0.867;entryY=1.05;entryDx=0;entryDy=0;entryPerimeter=0;" edge="1" parent="1" source="eIY_nMuqHv6aUpB4erwn-35" target="eIY_nMuqHv6aUpB4erwn-7">
          <mxGeometry relative="1" as="geometry">
            <Array as="points">
              <mxPoint x="625" y="900" />
              <mxPoint x="602" y="900" />
            </Array>
          </mxGeometry>
        </mxCell>
        <mxCell id="eIY_nMuqHv6aUpB4erwn-35" value="contents" style="ellipse;whiteSpace=wrap;html=1;aspect=fixed;" vertex="1" parent="1">
          <mxGeometry x="600" y="930" width="50" height="50" as="geometry" />
        </mxCell>
        <mxCell id="eIY_nMuqHv6aUpB4erwn-47" style="edgeStyle=orthogonalEdgeStyle;rounded=0;orthogonalLoop=1;jettySize=auto;html=1;entryX=0.25;entryY=1;entryDx=0;entryDy=0;" edge="1" parent="1" source="eIY_nMuqHv6aUpB4erwn-36" target="eIY_nMuqHv6aUpB4erwn-3">
          <mxGeometry relative="1" as="geometry">
            <mxPoint x="380" y="1000" as="targetPoint" />
            <Array as="points">
              <mxPoint x="370" y="1010" />
              <mxPoint x="410" y="1010" />
            </Array>
          </mxGeometry>
        </mxCell>
        <mxCell id="eIY_nMuqHv6aUpB4erwn-36" value="contents" style="ellipse;whiteSpace=wrap;html=1;aspect=fixed;" vertex="1" parent="1">
          <mxGeometry x="345" y="1020" width="50" height="50" as="geometry" />
        </mxCell>
        <mxCell id="eIY_nMuqHv6aUpB4erwn-45" value="" style="edgeStyle=orthogonalEdgeStyle;rounded=0;orthogonalLoop=1;jettySize=auto;html=1;entryX=0;entryY=0.75;entryDx=0;entryDy=0;" edge="1" parent="1" source="eIY_nMuqHv6aUpB4erwn-37" target="eIY_nMuqHv6aUpB4erwn-3">
          <mxGeometry relative="1" as="geometry">
            <mxPoint x="390" y="980" as="targetPoint" />
            <Array as="points">
              <mxPoint x="370" y="995" />
              <mxPoint x="370" y="965" />
            </Array>
          </mxGeometry>
        </mxCell>
        <mxCell id="eIY_nMuqHv6aUpB4erwn-37" value="title" style="ellipse;whiteSpace=wrap;html=1;aspect=fixed;strokeColor=default;gradientColor=none;direction=west;" vertex="1" parent="1">
          <mxGeometry x="300" y="970" width="50" height="50" as="geometry" />
        </mxCell>
        <mxCell id="eIY_nMuqHv6aUpB4erwn-52" style="edgeStyle=orthogonalEdgeStyle;rounded=0;orthogonalLoop=1;jettySize=auto;html=1;entryX=1;entryY=0.75;entryDx=0;entryDy=0;" edge="1" parent="1" source="eIY_nMuqHv6aUpB4erwn-38" target="eIY_nMuqHv6aUpB4erwn-7">
          <mxGeometry relative="1" as="geometry">
            <mxPoint x="640" y="850" as="targetPoint" />
          </mxGeometry>
        </mxCell>
        <mxCell id="eIY_nMuqHv6aUpB4erwn-38" value="id" style="ellipse;whiteSpace=wrap;html=1;aspect=fixed;strokeColor=default;gradientColor=none;direction=west;" vertex="1" parent="1">
          <mxGeometry x="660" y="880" width="50" height="50" as="geometry" />
        </mxCell>
        <mxCell id="eIY_nMuqHv6aUpB4erwn-48" value="" style="edgeStyle=orthogonalEdgeStyle;rounded=0;orthogonalLoop=1;jettySize=auto;html=1;" edge="1" parent="1" source="eIY_nMuqHv6aUpB4erwn-39" target="eIY_nMuqHv6aUpB4erwn-3">
          <mxGeometry relative="1" as="geometry" />
        </mxCell>
        <mxCell id="eIY_nMuqHv6aUpB4erwn-39" value="id" style="ellipse;whiteSpace=wrap;html=1;aspect=fixed;strokeColor=default;gradientColor=none;direction=west;" vertex="1" parent="1">
          <mxGeometry x="410" y="1030" width="50" height="50" as="geometry" />
        </mxCell>
        <mxCell id="eIY_nMuqHv6aUpB4erwn-42" value="" style="endArrow=none;html=1;rounded=0;" edge="1" parent="1">
          <mxGeometry width="50" height="50" relative="1" as="geometry">
            <mxPoint x="670" y="920" as="sourcePoint" />
            <mxPoint x="700" y="920" as="targetPoint" />
            <Array as="points">
              <mxPoint x="700" y="920" />
            </Array>
          </mxGeometry>
        </mxCell>
        <mxCell id="eIY_nMuqHv6aUpB4erwn-43" value="" style="endArrow=none;html=1;rounded=0;" edge="1" parent="1">
          <mxGeometry width="50" height="50" relative="1" as="geometry">
            <mxPoint x="420" y="1069" as="sourcePoint" />
            <mxPoint x="450" y="1069" as="targetPoint" />
          </mxGeometry>
        </mxCell>
      </root>
    </mxGraphModel>
  </diagram>
</mxfile>
